<svg version="1.1" viewBox="0 0 24 24" xmlns="http://www.w3.org/2000/svg" xmlns:xlink="http://www.w3.org/1999/xlink" x="0px" y="0px">
<path d="M16.1724 3.29897V1.57759C16.1724 1.12517 15.7972 0.75 15.3448 0.75C14.8924 0.75 14.5172 1.12517 14.5172 1.57759V3.23276H7.34481V1.57759C7.34481 1.12517 6.96964 0.75 6.51723 0.75C6.06481 0.75 5.68964 1.12517 5.68964 1.57759V3.29897C2.71033 3.57483 1.26481 5.35138 1.04412 7.98862C1.02205 8.30862 1.28688 8.57345 1.59585 8.57345H20.2662C20.5862 8.57345 20.851 8.29759 20.8179 7.98862C20.5972 5.35138 19.1517 3.57483 16.1724 3.29897Z" fill="black"/>
<path fill-rule="evenodd" clip-rule="evenodd" d="M19.7586 10.2286H2.10345C1.49655 10.2286 1 10.7252 1 11.3321V18.1293C1 21.4397 2.65517 23.6465 6.51724 23.6465H11.9572C12.7186 23.6465 13.2483 22.9072 13.0055 22.19C12.7848 21.55 12.5972 20.8438 12.5972 20.3362C12.5972 16.9928 15.3228 14.2672 18.6662 14.2672C18.9862 14.2672 19.3062 14.2893 19.6152 14.3445C20.2772 14.4438 20.8731 13.9252 20.8731 13.2631V11.3431C20.8621 10.7252 20.3655 10.2286 19.7586 10.2286ZM7.85241 18.9128C7.74207 19.0121 7.62069 19.0893 7.48828 19.1445C7.35586 19.1996 7.21241 19.2328 7.06897 19.2328C6.92552 19.2328 6.78207 19.1996 6.64965 19.1445C6.51724 19.0893 6.39586 19.0121 6.28552 18.9128C6.0869 18.7031 5.96552 18.4162 5.96552 18.1293C5.96552 18.0631 5.97655 17.9859 5.98759 17.9197C5.99862 17.8424 6.02069 17.7762 6.05379 17.71C6.07586 17.6438 6.10897 17.5776 6.1531 17.5114C6.17517 17.4746 6.20705 17.4378 6.23893 17.401C6.25487 17.3826 6.27081 17.3643 6.28552 17.3459C6.39586 17.2465 6.51724 17.1693 6.64965 17.1141C6.91448 17.0038 7.22345 17.0038 7.48828 17.1141C7.62069 17.1693 7.74207 17.2465 7.85241 17.3459C7.86713 17.3643 7.88306 17.3826 7.899 17.401C7.93088 17.4378 7.96276 17.4746 7.98483 17.5114C8.02897 17.5776 8.06207 17.6438 8.08414 17.71C8.11724 17.7762 8.13931 17.8424 8.15034 17.9197C8.16138 17.9859 8.17241 18.0631 8.17241 18.1293C8.17241 18.4162 8.05103 18.7031 7.85241 18.9128ZM7.85241 15.0507C7.74207 15.15 7.62069 15.2272 7.48828 15.2824C7.35586 15.3376 7.21241 15.3707 7.06897 15.3707C6.92552 15.3707 6.78207 15.3376 6.64965 15.2824C6.50621 15.2272 6.39586 15.15 6.28552 15.0507C6.0869 14.841 5.96552 14.5541 5.96552 14.2672C5.96552 13.9803 6.0869 13.6934 6.28552 13.4838C6.39586 13.3845 6.51724 13.3072 6.64965 13.2521C6.91448 13.1417 7.22345 13.1417 7.48828 13.2521C7.62069 13.3072 7.74207 13.3845 7.85241 13.4838C7.8671 13.5022 7.88302 13.5205 7.89893 13.5389C7.93081 13.5757 7.96276 13.6125 7.98483 13.6493C8.02897 13.7155 8.06207 13.7817 8.08414 13.8479C8.11724 13.9141 8.13931 13.9803 8.15034 14.0465C8.16138 14.1238 8.17241 14.201 8.17241 14.2672C8.17241 14.5541 8.05103 14.841 7.85241 15.0507ZM11.7145 15.0507C11.5048 15.2493 11.229 15.3707 10.931 15.3707C10.7876 15.3707 10.6441 15.3376 10.5117 15.2824C10.3683 15.2272 10.2579 15.15 10.1476 15.0507C9.94897 14.841 9.82759 14.5541 9.82759 14.2672C9.82759 14.201 9.83862 14.1238 9.84966 14.0465C9.86069 13.9803 9.88276 13.9141 9.91586 13.8479C9.93793 13.7817 9.97104 13.7155 10.0152 13.6493L10.1476 13.4838C10.5559 13.0755 11.2952 13.0755 11.7145 13.4838L11.8469 13.6493C11.891 13.7155 11.9241 13.7817 11.9462 13.8479C11.9793 13.9141 12.0014 13.9803 12.0124 14.0465C12.0234 14.1238 12.0345 14.201 12.0345 14.2672C12.0345 14.5541 11.9131 14.841 11.7145 15.0507Z" fill="black"/>
<path fill-rule="evenodd" clip-rule="evenodd" d="M15.5324 17.2134C17.2538 15.4921 20.0566 15.4921 21.7779 17.2134C23.4993 18.9348 23.4993 21.7376 21.7779 23.459C20.0566 25.1803 17.2538 25.1803 15.5324 23.459C13.811 21.7376 13.811 18.9348 15.5324 17.2134ZM20.3545 21.1969C20.5862 21.1969 20.7959 21.1086 20.9393 20.9541C21.0938 20.8107 21.1821 20.601 21.1821 20.3693C21.1821 19.9169 20.8179 19.5417 20.3545 19.5417H19.5379V18.7583C19.5379 18.3059 19.1628 17.9307 18.7103 17.9307C18.2469 17.9307 17.8828 18.3059 17.8828 18.7583V19.5417H17.0552C16.6028 19.5417 16.2276 19.9169 16.2276 20.3693C16.2276 20.8328 16.6028 21.1969 17.0552 21.1969H17.8828V22.0576C17.8828 22.51 18.2579 22.8852 18.7103 22.8852C18.9421 22.8852 19.1407 22.7969 19.2952 22.6424C19.4497 22.4879 19.5379 22.2893 19.5379 22.0576V21.1969H20.3545Z" fill="black"/>
</svg>
