<svg version="1.1" viewBox="0 0 24 24" xmlns="http://www.w3.org/2000/svg" xmlns:xlink="http://www.w3.org/1999/xlink" x="0px" y="0px">
<path d="M23.8393 1.30705C23.9429 1.55673 24 1.83052 24 2.11765V16.6165C24 17.786 23.0519 18.7341 21.8824 18.7341C20.7128 18.7341 19.7647 17.786 19.7647 16.6165V7.2301L3.61505 23.3798C2.78806 24.2067 1.44724 24.2067 0.620244 23.3798C-0.206748 22.5528 -0.206748 21.2119 0.620244 20.385L16.7699 4.23529H7.38353C6.21398 4.23529 5.26588 3.28719 5.26588 2.11765C5.26588 0.948103 6.21398 0 7.38353 0H21.8824C22.4648 0 22.9924 0.235178 23.3753 0.61576C23.3783 0.618745 23.3813 0.621739 23.3842 0.624742C23.585 0.82673 23.7367 1.05912 23.8393 1.30705Z" fill="#333333"/>
</svg>
