<svg version="1.1" viewBox="0 0 24 24" xmlns="http://www.w3.org/2000/svg" xmlns:xlink="http://www.w3.org/1999/xlink" x="0px" y="0px">
<path fill-rule="evenodd" clip-rule="evenodd" d="M24 7.2V6.972C24 6.732 23.988 6.492 23.964 6.252C23.724 2.556 21.444 0.276 17.748 0.036C17.508 0.012 17.268 0 17.028 0H6.972C6.732 0 6.492 0.012 6.252 0.036C2.556 0.276 0.276 2.556 0.036 6.252C0.012 6.492 0 6.732 0 6.972V7.212C0 7.872 0.54 8.412 1.2 8.412L22.8 8.4C23.46 8.4 24 7.86 24 7.2ZM1.2 9.6H22.8C23.46 9.6 24 10.14 24 10.8V17.028C24 17.268 23.988 17.508 23.964 17.748C23.724 21.444 21.444 23.724 17.748 23.964C17.508 23.988 17.268 24 17.028 24H6.972C6.732 24 6.492 23.988 6.252 23.964C2.556 23.724 0.276 21.444 0.036 17.748C0.012 17.508 0 17.268 0 17.028V10.8C0 10.14 0.54 9.6 1.2 9.6ZM8.796 18.396C8.16 18.072 7.608 17.58 7.2 16.98C7.128 16.872 7.128 16.728 7.2 16.62C7.608 16.02 8.16 15.528 8.796 15.204C9.252 14.988 9.432 14.448 9.204 13.992C8.988 13.548 8.448 13.368 8.004 13.596C7.068 14.052 6.276 14.76 5.712 15.612C5.232 16.332 5.232 17.268 5.712 17.988C6.276 18.84 7.068 19.548 8.004 20.004C8.124 20.064 8.268 20.1 8.4 20.1C8.724 20.1 9.048 19.92 9.204 19.608C9.432 19.152 9.252 18.612 8.796 18.396ZM16.248 20.004C17.172 19.548 17.964 18.84 18.54 17.988C19.02 17.268 19.02 16.332 18.54 15.612C17.964 14.76 17.172 14.052 16.248 13.596C15.804 13.368 15.264 13.548 15.048 13.992C14.82 14.448 15 14.988 15.444 15.204C16.092 15.528 16.644 16.02 17.04 16.62C17.124 16.728 17.124 16.872 17.04 16.98C16.644 17.58 16.092 18.072 15.444 18.396C15 18.612 14.82 19.152 15.048 19.608C15.204 19.92 15.516 20.1 15.852 20.1C15.984 20.1 16.116 20.064 16.248 20.004Z" fill="black"/>
</svg>
