<svg version="1.1" viewBox="0 0 24 24" xmlns="http://www.w3.org/2000/svg" xmlns:xlink="http://www.w3.org/1999/xlink" x="0px" y="0px">
<path d="M16.1724 3.29897V1.57759C16.1724 1.12517 15.7972 0.75 15.3448 0.75C14.8924 0.75 14.5172 1.12517 14.5172 1.57759V3.23276H7.34481V1.57759C7.34481 1.12517 6.96964 0.75 6.51723 0.75C6.06481 0.75 5.68964 1.12517 5.68964 1.57759V3.29897C2.71033 3.57483 1.26481 5.35138 1.04412 7.98862C1.02205 8.30862 1.28688 8.57345 1.59585 8.57345H20.2662C20.5862 8.57345 20.851 8.29759 20.8179 7.98862C20.5972 5.35138 19.1517 3.57483 16.1724 3.29897Z" fill="black"/>
<path fill-rule="evenodd" clip-rule="evenodd" d="M18.6552 15.9224C16.2166 15.9224 14.2414 17.8976 14.2414 20.3362C14.2414 21.1638 14.4731 21.9472 14.8814 22.6093C15.6428 23.8893 17.0441 24.75 18.6552 24.75C20.2662 24.75 21.6676 23.8893 22.429 22.6093C22.8372 21.9472 23.069 21.1638 23.069 20.3362C23.069 17.8976 21.0938 15.9224 18.6552 15.9224ZM20.9393 19.8617L18.589 22.0355C18.4345 22.179 18.2248 22.2562 18.0262 22.2562C17.8166 22.2562 17.6069 22.179 17.4414 22.0134L16.349 20.921C16.029 20.601 16.029 20.0714 16.349 19.7514C16.669 19.4314 17.1986 19.4314 17.5186 19.7514L18.0483 20.281L19.8138 18.6479C20.1448 18.339 20.6745 18.361 20.9834 18.6921C21.2924 19.0231 21.2703 19.5417 20.9393 19.8617Z" fill="black"/>
<path fill-rule="evenodd" clip-rule="evenodd" d="M2.10345 10.2286H19.7586C20.3655 10.2286 20.8621 10.7252 20.8731 11.3431V13.2631C20.8731 13.9252 20.2772 14.4438 19.6152 14.3445C19.3062 14.2893 18.9862 14.2672 18.6662 14.2672C15.3228 14.2672 12.5972 16.9928 12.5972 20.3362C12.5972 20.8438 12.7848 21.55 13.0055 22.19C13.2483 22.9072 12.7186 23.6465 11.9572 23.6465H6.51724C2.65517 23.6465 1 21.4397 1 18.1293V11.3321C1 10.7252 1.49655 10.2286 2.10345 10.2286ZM7.06897 19.7845C7.35586 19.7845 7.64276 19.6631 7.85241 19.4645C8.05103 19.2548 8.17241 18.9679 8.17241 18.681C8.17241 18.3941 8.05103 18.1072 7.85241 17.8976C7.54345 17.5886 7.05793 17.4893 6.64965 17.6659C6.50621 17.721 6.39586 17.7983 6.28552 17.8976C6.0869 18.1072 5.96552 18.3941 5.96552 18.681C5.96552 18.9679 6.0869 19.2548 6.28552 19.4645C6.49517 19.6631 6.78207 19.7845 7.06897 19.7845ZM7.6869 15.7348L7.85241 15.6024C8.05103 15.3928 8.17241 15.1059 8.17241 14.819C8.17241 14.5321 8.05103 14.2452 7.85241 14.0355L7.6869 13.9031C7.62069 13.859 7.55448 13.8259 7.48828 13.8038C7.42207 13.7707 7.35586 13.7486 7.28965 13.7376C6.92552 13.6603 6.53931 13.7817 6.28552 14.0355C6.0869 14.2452 5.96552 14.5321 5.96552 14.819C5.96552 15.1059 6.0869 15.3928 6.28552 15.6024C6.49517 15.801 6.78207 15.9224 7.06897 15.9224C7.13517 15.9224 7.21241 15.9114 7.28965 15.9003C7.35586 15.8893 7.42207 15.8672 7.48828 15.8341C7.55448 15.8121 7.62069 15.779 7.6869 15.7348ZM10.931 15.9224C11.2179 15.9224 11.5048 15.801 11.7145 15.6024C11.9131 15.3928 12.0345 15.1059 12.0345 14.819C12.0345 14.5321 11.9131 14.2452 11.7145 14.0355C11.3062 13.6272 10.5669 13.6272 10.1476 14.0355C9.94897 14.2452 9.82759 14.5321 9.82759 14.819C9.82759 15.1059 9.94897 15.3928 10.1476 15.6024C10.3572 15.801 10.6441 15.9224 10.931 15.9224Z" fill="black"/>
</svg>
