<svg version="1.1" viewBox="0 0 24 24" xmlns="http://www.w3.org/2000/svg" xmlns:xlink="http://www.w3.org/1999/xlink" x="0px" y="0px">
<path d="M17.0245 0H6.97549C2.6053 0 0 2.6053 0 6.97549V17.0245C0 21.3947 2.6053 24 6.97549 24H17.0245C21.3947 24 24 21.3947 24 17.0245V6.97549C24 2.6053 21.3947 0 17.0245 0ZM10.5173 17.3967C10.5173 18.2011 9.85691 18.8614 9.0525 18.8614H6.11102C5.30661 18.8614 4.64632 18.2011 4.64632 17.3967V6.61532C4.64632 5.81092 5.30661 5.15059 6.11102 5.15059H9.0525C9.85691 5.15059 10.5173 5.81092 10.5173 6.61532V17.3967ZM19.3417 12.7864C19.3417 13.4347 18.8134 13.963 18.1651 13.963H14.6353C13.987 13.963 13.4587 13.4347 13.4587 12.7864V6.31517C13.4587 5.66685 13.987 5.13857 14.6353 5.13857H18.1651C18.8134 5.13857 19.3417 5.66685 19.3417 6.31517V12.7864Z" fill="black"/>
</svg>
