<svg width="58" height="16" viewBox="0 0 58 16" fill="none" xmlns="http://www.w3.org/2000/svg">
<path d="M8.90764 5.8216C8.7376 5.54684 8.49562 5.33751 8.18169 5.19359C7.86776 5.03659 7.48844 4.95809 7.04371 4.95809C6.20657 4.95809 5.5591 5.23284 5.10129 5.78234C4.64349 6.31877 4.41458 7.05798 4.41458 7.99999C4.41458 9.08591 4.66965 9.89708 5.17977 10.4335C5.6899 10.9699 6.47472 11.2381 7.53422 11.2381C8.5414 11.2381 9.35237 10.8325 9.96714 10.0214H6.49434V6.94023H13.5773V11.297C12.9756 12.3306 12.145 13.2203 11.0855 13.966C10.026 14.6987 8.68528 15.065 7.06333 15.065C5.6245 15.065 4.3688 14.7707 3.29622 14.1819C2.23672 13.5801 1.41921 12.7427 0.843676 11.6699C0.281225 10.597 0 9.37374 0 7.99999C0 6.62623 0.281225 5.40293 0.843676 4.33008C1.41921 3.25724 2.23672 2.42645 3.29622 1.83769C4.35572 1.23586 5.59834 0.934937 7.02409 0.934937C8.84224 0.934937 10.3203 1.37323 11.4583 2.24982C12.6094 3.12641 13.2895 4.317 13.4988 5.8216H8.90764Z" fill="#333333"/>
<path d="M26.0549 1.07231V4.52634H22.3663V14.9669H18.0106V4.52634H14.3612V1.07231H26.0549Z" fill="#333333"/>
<rect x="27.2795" y="0.934937" width="29.8916" height="14.1301" rx="7.06505" fill="#FF710D"/>
<path d="M38.846 7.15644C38.846 7.5037 38.7657 7.81986 38.605 8.10492C38.4443 8.38481 38.2059 8.60767 37.8898 8.77353C37.5788 8.93938 37.2004 9.02231 36.7547 9.02231H36.0705V10.7716H34.3446V5.26724H36.7547C37.4285 5.26724 37.9442 5.43828 38.3018 5.78036C38.6646 6.12244 38.846 6.58113 38.846 7.15644ZM36.5603 7.66178C36.918 7.66178 37.0968 7.49333 37.0968 7.15644C37.0968 6.81955 36.918 6.6511 36.5603 6.6511H36.0705V7.66178H36.5603Z" fill="white"/>
<path d="M42.1612 10.7716L41.1272 8.79685H41.1194V10.7716H39.3935V5.26724H41.959C42.4048 5.26724 42.7857 5.34758 43.1019 5.50825C43.418 5.66374 43.6539 5.87884 43.8094 6.15353C43.97 6.42305 44.0504 6.72884 44.0504 7.07092C44.0504 7.43891 43.9467 7.76544 43.7394 8.0505C43.5372 8.33557 43.2444 8.54029 42.8609 8.66469L44.0581 10.7716H42.1612ZM41.1194 7.64623H41.8035C41.9694 7.64623 42.0938 7.60995 42.1767 7.53739C42.2596 7.45964 42.3011 7.34044 42.3011 7.17976C42.3011 7.03464 42.257 6.92061 42.1689 6.83769C42.086 6.75476 41.9642 6.7133 41.8035 6.7133H41.1194V7.64623Z" fill="white"/>
<path d="M47.2839 10.826C46.7656 10.826 46.2888 10.7042 45.8534 10.4606C45.4232 10.217 45.0812 9.88009 44.8272 9.44991C44.5732 9.01972 44.4463 8.53511 44.4463 7.99608C44.4463 7.45705 44.5732 6.97244 44.8272 6.54226C45.0812 6.11207 45.4232 5.77777 45.8534 5.53935C46.2888 5.29575 46.7656 5.17395 47.2839 5.17395C47.8022 5.17395 48.2765 5.29575 48.7067 5.53935C49.1368 5.77777 49.4763 6.11207 49.7251 6.54226C49.9791 6.97244 50.1061 7.45705 50.1061 7.99608C50.1061 8.53511 49.9791 9.01972 49.7251 9.44991C49.4763 9.88009 49.1343 10.217 48.6989 10.4606C48.2687 10.7042 47.797 10.826 47.2839 10.826ZM47.2839 9.21667C47.626 9.21667 47.8903 9.10783 48.0769 8.89015C48.2635 8.66728 48.3568 8.36926 48.3568 7.99608C48.3568 7.61772 48.2635 7.3197 48.0769 7.10202C47.8903 6.87915 47.626 6.76772 47.2839 6.76772C46.9367 6.76772 46.6697 6.87915 46.4832 7.10202C46.2966 7.3197 46.2033 7.61772 46.2033 7.99608C46.2033 8.36926 46.2966 8.66728 46.4832 8.89015C46.6697 9.10783 46.9367 9.21667 47.2839 9.21667Z" fill="white"/>
</svg>
