<svg width="24" height="24" viewBox="0 0 24 24" fill="none" xmlns="http://www.w3.org/2000/svg">
<path d="M11.5145 5.4375C11.5145 5.175 11.6888 5 11.9502 5C15.7842 5 18.9212 8.2375 18.9212 12.0875V13.575C18.9212 13.8375 18.7469 14.0125 18.4855 14.0125C18.2241 14.0125 18.0498 13.8375 18.0498 13.575V12.0875C18.0498 8.675 15.2614 5.875 11.9502 5.875C11.6888 5.875 11.5145 5.7 11.5145 5.4375Z" fill="url(#paint0_linear_1101_534)"/>
<path d="M9.16183 6.04999C9.3361 6.31249 9.24896 6.57499 8.98755 6.66249C7.07054 7.79999 5.85062 9.89999 5.85062 12.175V16.55C5.85062 16.8125 5.67635 16.9875 5.41494 16.9875C5.15353 16.9875 4.97925 16.8125 4.97925 16.55V12.175C4.97925 9.54999 6.37344 7.09999 8.55187 5.87499C8.59544 5.87499 8.63901 5.85312 8.68257 5.83124C8.72614 5.80937 8.76971 5.78749 8.81328 5.78749C8.98755 5.78749 9.16183 5.87499 9.16183 6.04999Z" fill="url(#paint1_linear_1101_534)"/>
<path d="M11.9502 7.3625C12.2116 7.3625 12.3859 7.5375 12.3859 7.8C12.3859 8.0625 12.2116 8.2375 11.9502 8.325C9.77181 8.325 7.94193 10.1625 7.94193 12.4375V14.625C7.94193 14.8875 7.76766 15.0625 7.50625 15.0625C7.24483 15.0625 7.07056 14.8875 7.07056 14.625V12.4375C7.07056 9.6375 9.24898 7.3625 11.9502 7.3625Z" fill="url(#paint2_linear_1101_534)"/>
<path d="M11.9502 15.675C11.6888 15.675 11.5145 15.675 11.2531 15.5875C10.556 15.325 10.0332 14.625 10.0332 13.8375V12.2625C10.0332 11.3 10.8174 10.5125 11.776 10.5125C12.9087 10.5125 13.7801 11.3875 13.7801 12.525V13.8375C13.7801 14.275 13.6058 14.625 13.4316 14.975C13.2573 15.15 13.3444 15.5 13.5187 15.5875C13.693 15.7625 13.9544 15.675 14.1287 15.5C14.4772 14.975 14.7386 14.3625 14.7386 13.75V12.4375C14.7386 10.775 13.4316 9.46251 11.8631 9.46251C10.3818 9.46251 9.24898 10.6875 9.24898 12.175V13.75C9.24898 14.7125 9.68467 15.5875 10.4689 16.1125C9.68467 16.6375 9.24898 17.5125 9.24898 18.475C9.24898 18.7375 9.42326 18.9125 9.68467 18.9125C9.94608 18.9125 10.1204 18.7375 10.1204 18.475C10.1204 17.425 10.9917 16.55 11.9502 16.55C12.6473 16.55 13.3444 16.9875 13.6058 17.6C13.693 17.8625 13.7801 18.125 13.7801 18.3875C13.7801 18.65 13.9544 18.825 14.2158 18.825C14.4772 18.825 14.6515 18.65 14.6515 18.3875C14.6515 17.95 14.5643 17.5125 14.3901 17.1625C13.9544 16.375 12.9959 15.675 11.9502 15.675Z" fill="url(#paint3_linear_1101_534)"/>
<path d="M7.07056 15.9375C7.07056 15.675 7.24483 15.5 7.50625 15.5C7.76766 15.5 7.94193 15.675 7.94193 15.9375V18.475C7.94193 18.7375 7.76766 18.9125 7.50625 18.9125C7.24483 18.9125 7.07056 18.7375 7.07056 18.475V15.9375Z" fill="url(#paint4_linear_1101_534)"/>
<path d="M11.5145 13.75V12.7C11.5145 12.525 11.6888 12.35 11.9502 12.35C12.2116 12.35 12.3859 12.525 12.3859 12.7875V13.75C12.3859 14.0125 12.2116 14.1875 11.9502 14.1875C11.6888 14.1875 11.5145 14.0125 11.5145 13.75Z" fill="url(#paint5_linear_1101_534)"/>
<path d="M13.9544 7.75626C13.9761 7.77813 13.9979 7.8 14.0415 7.8C15.7842 8.675 16.8299 10.425 16.7427 12.2625V16.375C16.7427 16.6375 16.5685 16.8125 16.3071 16.8125C16.0456 16.8125 15.8714 16.6375 15.8714 16.375V12.2625C15.8714 10.6875 15 9.28751 13.6058 8.58751C13.4315 8.50001 13.3444 8.23751 13.4315 7.97501C13.5187 7.80001 13.6929 7.71251 13.8672 7.71251C13.9108 7.71251 13.9326 7.73438 13.9544 7.75626Z" fill="url(#paint6_linear_1101_534)"/>
<path d="M18.4855 15.5C18.2241 15.5 18.0498 15.675 18.0498 15.9375V18.475C18.0498 18.7375 18.2241 18.9125 18.4855 18.9125C18.7469 18.9125 18.9212 18.7375 18.9212 18.475V15.9375C18.9212 15.675 18.7469 15.5 18.4855 15.5Z" fill="url(#paint7_linear_1101_534)"/>
<path fill-rule="evenodd" clip-rule="evenodd" d="M4.48133 0H19.4191C21.9087 0 23.9004 2 24 4.5V19.5C24 22 22.0083 24 19.5187 24H4.48133C1.9917 24 0 22 0 19.6V4.5C0 2 1.9917 0 4.48133 0ZM19.4191 22.6C21.112 22.6 22.5062 21.2 22.5062 19.5H22.6058V4.5C22.6058 2.8 21.2116 1.4 19.5187 1.4H4.48133C2.78838 1.4 1.39419 2.8 1.39419 4.5V19.5C1.39419 21.2 2.78838 22.6 4.48133 22.6H19.4191Z" fill="url(#paint8_linear_1101_534)"/>
<defs>
<linearGradient id="paint0_linear_1101_534" x1="0" y1="11.1111" x2="24" y2="11.1111" gradientUnits="userSpaceOnUse">
<stop stop-color="#BF5EA4"/>
<stop offset="1" stop-color="#6D54A3"/>
<stop offset="1" stop-color="#6D54A3"/>
</linearGradient>
<linearGradient id="paint1_linear_1101_534" x1="0" y1="11.1111" x2="24" y2="11.1111" gradientUnits="userSpaceOnUse">
<stop stop-color="#BF5EA4"/>
<stop offset="1" stop-color="#6D54A3"/>
<stop offset="1" stop-color="#6D54A3"/>
</linearGradient>
<linearGradient id="paint2_linear_1101_534" x1="0" y1="11.1111" x2="24" y2="11.1111" gradientUnits="userSpaceOnUse">
<stop stop-color="#BF5EA4"/>
<stop offset="1" stop-color="#6D54A3"/>
<stop offset="1" stop-color="#6D54A3"/>
</linearGradient>
<linearGradient id="paint3_linear_1101_534" x1="0" y1="11.1111" x2="24" y2="11.1111" gradientUnits="userSpaceOnUse">
<stop stop-color="#BF5EA4"/>
<stop offset="1" stop-color="#6D54A3"/>
<stop offset="1" stop-color="#6D54A3"/>
</linearGradient>
<linearGradient id="paint4_linear_1101_534" x1="0" y1="11.1111" x2="24" y2="11.1111" gradientUnits="userSpaceOnUse">
<stop stop-color="#BF5EA4"/>
<stop offset="1" stop-color="#6D54A3"/>
<stop offset="1" stop-color="#6D54A3"/>
</linearGradient>
<linearGradient id="paint5_linear_1101_534" x1="0" y1="11.1111" x2="24" y2="11.1111" gradientUnits="userSpaceOnUse">
<stop stop-color="#BF5EA4"/>
<stop offset="1" stop-color="#6D54A3"/>
<stop offset="1" stop-color="#6D54A3"/>
</linearGradient>
<linearGradient id="paint6_linear_1101_534" x1="0" y1="11.1111" x2="24" y2="11.1111" gradientUnits="userSpaceOnUse">
<stop stop-color="#BF5EA4"/>
<stop offset="1" stop-color="#6D54A3"/>
<stop offset="1" stop-color="#6D54A3"/>
</linearGradient>
<linearGradient id="paint7_linear_1101_534" x1="0" y1="11.1111" x2="24" y2="11.1111" gradientUnits="userSpaceOnUse">
<stop stop-color="#BF5EA4"/>
<stop offset="1" stop-color="#6D54A3"/>
<stop offset="1" stop-color="#6D54A3"/>
</linearGradient>
<linearGradient id="paint8_linear_1101_534" x1="0" y1="11.1111" x2="24" y2="11.1111" gradientUnits="userSpaceOnUse">
<stop stop-color="#BF5EA4"/>
<stop offset="1" stop-color="#6D54A3"/>
<stop offset="1" stop-color="#6D54A3"/>
</linearGradient>
</defs>
</svg>
